STARTFONT 2.1
COMMENT This font image is originally translated from Metafont "dvng10"
COMMENT from devnagri package.
COMMENT DPI was ``147'', usermag ``1000'', blackness ``3''
COMMENT shrink was 1
FONT -Misc-Fixed-Medium-R-Normal--24-240-72-72-C-120-iso10646.indian-1
SIZE 24 72 72
FONTBOUNDINGBOX 24 27 0 -5
STARTPROPERTIES 22
FOUNDRY "Misc"
FAMILY_NAME "Fixed"
WEIGHT_NAME "Medium"
SLANT "R"
SETWIDTH_NAME "Normal"
ADD_STYLE_NAME ""
PIXEL_SIZE 24
POINT_SIZE 240
RESOLUTION_X 72
RESOLUTION_Y 72
SPACING "C"
AVERAGE_WIDTH 240
CHARSET_REGISTRY "iso10646.indian"
CHARSET_ENCODING "1"
STRIKEOUT_ASCENT 22
STRIKEOUT_DESCENT 5
X_HEIGHT 10
FACE_NAME "Indian"
COPYRIGHT "Public domain"
FONT_ASCENT 22
FONT_DESCENT 5
DEFAULT_CHAR 2304
ENDPROPERTIES
CHARS 105
STARTCHAR c900
ENCODING 2304
SWIDTH 1000 0
DWIDTH 24 0
BBX 24 27 0 -5
BITMAP
000000
000000
000000
000000
000000
000000
000000
000000
000000
000000
000000
000000
000000
000000
000000
000000
000000
000000
000000
000000
000000
000000
000000
000000
000000
000000
000000
ENDCHAR
STARTCHAR c901
ENCODING 2305
SWIDTH 1000 0
DWIDTH 24 0
BBX 24 27 0 -5
BITMAP
000000
000000
000258
0001f8
0001d8
0000f8
000070
000000
000000
000000
000000
000000
000000
000000
000000
000000
000000
000000
000000
000000
000000
000000
000000
000000
000000
000000
000000
ENDCHAR
STARTCHAR U+0902
ENCODING 2306
SWIDTH 1000 0
DWIDTH 24 0
BBX 24 27 0 -5
BITMAP
000000
000000
000000
000010
000038
000010
000000
000000
000000
000000
000000
000000
000000
000000
000000
000000
000000
000000
000000
000000
000000
000000
000000
000000
000000
000000
000000
ENDCHAR
STARTCHAR U+0903
ENCODING 2307
SWIDTH 1000 0
DWIDTH 24 0
BBX 24 27 0 -5
BITMAP
000000
000000
000000
000000
000000
000000
000000
000000
7ffffc
3ffffe
000000
000000
020000
070000
020000
000000
000000
020000
070000
020000
000000
000000
000000
000000
000000
000000
000000
ENDCHAR
STARTCHAR U+0905
ENCODING 2309
SWIDTH 1000 0
DWIDTH 24 0
BBX 24 27 0 -5
BITMAP
000000
000000
000000
000000
000000
000000
000000
000000
0f3ffe
3f9fff
18c300
00c300
01c300
0f8300
27cf00
307f00
107b00
08e300
07c300
038300
000300
000100
000000
000000
000000
000000
000000
ENDCHAR
STARTCHAR U+0906
ENCODING 2310
SWIDTH 1000 0
DWIDTH 24 0
BBX 24 27 0 -5
BITMAP
000000
000000
000000
000000
000000
000000
000000
000000
0f3ffe
3f9fff
18c30c
00c30c
01c30c
0f830c
27cf0c
307f0c
107b0c
08e30c
07c30c
03830c
00030c
000104
000000
000000
000000
000000
000000
ENDCHAR
STARTCHAR c907
ENCODING 2311
SWIDTH 1000 0
DWIDTH 24 0
BBX 24 27 0 -5
BITMAP
000000
000000
000000
000000
000000
000000
000000
000000
fffffe
7fffff
001800
01f800
03f800
030000
01f000
00f800
000c00
01dc00
03f800
01f000
000800
000c00
000400
000000
000000
000000
000000
ENDCHAR
STARTCHAR c908
ENCODING 2312
SWIDTH 1000 0
DWIDTH 24 0
BBX 24 27 0 -5
BITMAP
000000
000000
000000
003800
007c00
006200
002000
001000
fffffe
7fffff
001800
01f800
03f800
030000
01f000
00f800
000c00
01dc00
03f800
01f000
000800
000c00
000400
000000
000000
000000
000000
ENDCHAR
STARTCHAR U+0909
ENCODING 2313
SWIDTH 1000 0
DWIDTH 24 0
BBX 24 27 0 -5
BITMAP
000000
000000
000000
000000
000000
000000
000000
000000
fffffe
7fffff
000300
000300
000700
007e00
013c00
018200
018300
008300
004700
003e00
001c00
000000
000000
000000
000000
000000
000000
ENDCHAR
STARTCHAR U+090a
ENCODING 2314
SWIDTH 1000 0
DWIDTH 24 0
BBX 24 27 0 -5
BITMAP
000000
000000
000000
000000
000000
000000
000000
000000
fffffe
7fffff
001800
001800
003800
03f000
09e700
0c1f80
0c1c40
041860
0238e0
01f1c0
00e080
000000
000000
000000
000000
000000
000000
ENDCHAR
STARTCHAR c90b
ENCODING 2315
SWIDTH 1000 0
DWIDTH 24 0
BBX 24 27 0 -5
BITMAP
000000
000000
000000
000000
000000
000000
000000
000000
fffffe
7fffff
003000
0f3000
1fb180
0877c0
007fc0
00fcc0
03f0c0
0fb1e0
063380
003300
0031f0
0010f8
000000
000000
000000
000000
000000
ENDCHAR
STARTCHAR U+090c
ENCODING 2316
SWIDTH 1000 0
DWIDTH 24 0
BBX 24 27 0 -5
BITMAP
000000
000000
000000
000000
000000
000000
000000
000000
fffffe
7fffff
000300
000300
078f00
0fdf80
0c3840
0c3060
0c1060
0401e0
0607c0
020f00
010c00
008cc0
0007c0
000380
000000
000000
000000
ENDCHAR
STARTCHAR U+090d
ENCODING 2317
SWIDTH 1000 0
DWIDTH 24 0
BBX 24 27 0 -5
BITMAP
000000
000000
008600
004600
006600
003e00
001c00
000000
fffffe
7fffff
018600
018600
018600
018600
018600
018600
019e00
018c00
00c000
002000
001000
000c00
000600
000100
000180
000380
000300
ENDCHAR
STARTCHAR U+090e
ENCODING 2318
SWIDTH 1000 0
DWIDTH 24 0
BBX 24 27 0 -5
BITMAP
000000
000000
070000
038000
01f800
00fc00
000e00
000700
fffffe
7fffff
018600
018600
018600
018600
018600
018600
019e00
018c00
00c000
002000
001000
000c00
000600
000100
000180
000380
000300
ENDCHAR
STARTCHAR U+090f
ENCODING 2319
SWIDTH 1000 0
DWIDTH 24 0
BBX 24 27 0 -5
BITMAP
000000
000000
000000
000000
000000
000000
000000
000000
fffffe
7fffff
018600
018600
018600
018600
018600
018600
019e00
018c00
00c000
002000
001000
000c00
000600
000100
000180
000380
000300
ENDCHAR
STARTCHAR U+0910
ENCODING 2320
SWIDTH 1000 0
DWIDTH 24 0
BBX 24 27 0 -5
BITMAP
000000
000000
038000
01e000
003000
000800
000400
000600
fffffe
7fffff
018600
018600
018600
018600
018600
018600
019e00
018c00
00c000
002000
001000
000c00
000600
000100
000180
000380
000300
ENDCHAR
STARTCHAR U+0911
ENCODING 2321
SWIDTH 1000 0
DWIDTH 24 0
BBX 24 27 0 -5
BITMAP
000000
000000
00010c
00008c
0000cc
00007c
000038
000000
0f3ffe
3f9fff
18c30c
00c30c
01c30c
0f830c
27cf0c
307f0c
107b0c
08e30c
07c30c
03830c
00030c
000104
000000
000000
000000
000000
000000
ENDCHAR
STARTCHAR U+0912
ENCODING 2322
SWIDTH 1000 0
DWIDTH 24 0
BBX 24 27 0 -5
BITMAP
000000
000000
001c00
000e00
0007e0
0003f0
000038
00001c
0f3ffe
3f9fff
18c30c
00c30c
01c30c
0f830c
27cf0c
307f0c
107b0c
08e30c
07c30c
03830c
00030c
000104
000000
000000
000000
000000
000000
ENDCHAR
STARTCHAR U+0913
ENCODING 2323
SWIDTH 1000 0
DWIDTH 24 0
BBX 24 27 0 -5
BITMAP
000000
000000
000e00
000780
0000c0
000020
000010
000018
0f3ffe
3f9fff
18c30c
00c30c
01c30c
0f830c
27cf0c
307f0c
107b0c
08e30c
07c30c
03830c
00030c
000104
000000
000000
000000
000000
000000
ENDCHAR
STARTCHAR U+0914
ENCODING 2324
SWIDTH 1000 0
DWIDTH 24 0
BBX 24 27 0 -5
BITMAP
000000
000380
0001c0
000020
000f10
0007d8
000068
00001c
0f3ffe
3f9fff
18c30c
00c30c
01c30c
0f830c
27cf0c
307f0c
107b0c
08e30c
07c30c
03830c
00030c
000104
000000
000000
000000
000000
000000
ENDCHAR
STARTCHAR c915
ENCODING 2325
SWIDTH 1000 0
DWIDTH 24 0
BBX 24 27 0 -5
BITMAP
000000
000000
000000
000000
000000
000000
000000
000000
fffffe
7fffff
003000
03f000
07ff00
063f80
0638c0
0630c0
03f0c0
01f0c0
0031c0
003180
003080
001000
000000
000000
000000
000000
000000
ENDCHAR
STARTCHAR c916
ENCODING 2326
SWIDTH 1000 0
DWIDTH 24 0
BBX 24 27 0 -5
BITMAP
000000
000000
000000
000000
000000
000000
000000
000000
fffffe
7fffff
00e0c0
00c0c0
02dfc0
03ffc0
03f0c0
01b0c0
019fc0
008fc0
00c0c0
0040c0
0060c0
002040
000000
000000
000000
000000
000000
ENDCHAR
STARTCHAR c917
ENCODING 2327
SWIDTH 1000 0
DWIDTH 24 0
BBX 24 27 0 -5
BITMAP
000000
000000
000000
000000
000000
000000
000000
000000
fffffe
7fffff
008300
00c300
00c300
00c300
03c300
03c300
01c300
01c300
000300
000300
000300
000100
000000
000000
000000
000000
000000
ENDCHAR
STARTCHAR U+0918
ENCODING 2328
SWIDTH 1000 0
DWIDTH 24 0
BBX 24 27 0 -5
BITMAP
000000
000000
000000
000000
000000
000000
000000
000000
fffffe
7fffff
030300
010300
00f300
01fb00
018300
018f00
00ff00
007b00
000300
000300
000300
000100
000000
000000
000000
000000
000000
ENDCHAR
STARTCHAR U+0919
ENCODING 2329
SWIDTH 1000 0
DWIDTH 24 0
BBX 24 27 0 -5
BITMAP
000000
000000
000000
000000
000000
000000
000000
000000
fffffe
7fffff
000c00
00fc00
01fc00
018080
00f9c0
047c80
060600
020e00
01fc00
00f800
000000
000000
000000
000000
000000
000000
000000
ENDCHAR
STARTCHAR U+091a
ENCODING 2330
SWIDTH 1000 0
DWIDTH 24 0
BBX 24 27 0 -5
BITMAP
000000
000000
000000
000000
000000
000000
000000
000000
fffffe
7fffff
000300
000300
07fb00
03ff00
018300
018700
00ff00
007f00
000300
000300
000300
000100
000000
000000
000000
000000
000000
ENDCHAR
STARTCHAR U+091b
ENCODING 2331
SWIDTH 1000 0
DWIDTH 24 0
BBX 24 27 0 -5
BITMAP
000000
000000
000000
000000
000000
000000
000000
000000
fffffe
7fffff
000300
07c700
0fef80
0c0cc0
040cc0
03e4c0
01f3c0
038180
0303c0
030f20
01fe30
00f830
0000f0
000060
000000
000000
000000
ENDCHAR
STARTCHAR c91c
ENCODING 2332
SWIDTH 1000 0
DWIDTH 24 0
BBX 24 27 0 -5
BITMAP
000000
000000
000000
000000
000000
000000
000000
000000
fffffe
7fffff
0000c0
0000c0
047fc0
063fc0
0218c0
0308c0
010cc0
008cc0
007cc0
0038c0
0000c0
000040
000000
000000
000000
000000
000000
ENDCHAR
STARTCHAR U+091d
ENCODING 2333
SWIDTH 1000 0
DWIDTH 24 0
BBX 24 27 0 -5
BITMAP
000000
000000
000000
000000
000000
000000
000000
000000
fffffe
7fffff
0030c0
03f0c0
07f0c0
0600c0
03e3c0
01ffc0
001ec0
03b8c0
07f0c0
03e0c0
0010c0
001840
000800
000000
000000
000000
000000
ENDCHAR
STARTCHAR U+091e
ENCODING 2334
SWIDTH 1000 0
DWIDTH 24 0
BBX 24 27 0 -5
BITMAP
000000
000000
000000
000000
000000
000000
000000
000000
fffffe
7fffff
000180
010180
01c180
006180
003f80
023f80
033180
037180
01e180
00c180
000180
000080
000000
000000
000000
000000
000000
ENDCHAR
STARTCHAR U+091f
ENCODING 2335
SWIDTH 1000 0
DWIDTH 24 0
BBX 24 27 0 -5
BITMAP
000000
000000
000000
000000
000000
000000
000000
000000
fffffe
7fffff
000600
000600
003e00
00fe00
01e000
018000
018000
018000
008380
007f80
003e00
000000
000000
000000
000000
000000
000000
ENDCHAR
STARTCHAR U+0920
ENCODING 2336
SWIDTH 1000 0
DWIDTH 24 0
BBX 24 27 0 -5
BITMAP
000000
000000
000000
000000
000000
000000
000000
000000
fffffe
7fffff
000c00
000c00
007c00
01fc00
03c200
030100
030180
030180
010380
00ff00
007e00
000000
000000
000000
000000
000000
000000
ENDCHAR
STARTCHAR c921
ENCODING 2337
SWIDTH 1000 0
DWIDTH 24 0
BBX 24 27 0 -5
BITMAP
000000
000000
000000
000000
000000
000000
000000
000000
fffffe
7fffff
000300
003f00
007f00
006000
003e00
011f00
018180
008380
007f00
003e00
000000
000000
000000
000000
000000
000000
000000
ENDCHAR
STARTCHAR c922
ENCODING 2338
SWIDTH 1000 0
DWIDTH 24 0
BBX 24 27 0 -5
BITMAP
000000
000000
000000
000000
000000
000000
000000
000000
fffffe
7fffff
000600
007e00
00fe00
01c000
018000
018e00
019f00
00b980
007180
003f80
001f00
000000
000000
000000
000000
000000
000000
ENDCHAR
STARTCHAR U+0923
ENCODING 2339
SWIDTH 1000 0
DWIDTH 24 0
BBX 24 27 0 -5
BITMAP
000000
000000
000000
000000
000000
000000
000000
000000
fffffe
7fffff
019980
019980
019980
019980
019980
019980
00f980
007180
000180
000180
000180
000080
000000
000000
000000
000000
000000
ENDCHAR
STARTCHAR U+0924
ENCODING 2340
SWIDTH 1000 0
DWIDTH 24 0
BBX 24 27 0 -5
BITMAP
000000
000000
000000
000000
000000
000000
000000
000000
fffffe
7fffff
000300
000300
00ff00
01ff00
018300
018300
018300
008300
00c300
004300
002300
001100
000000
000000
000000
000000
000000
ENDCHAR
STARTCHAR U+0925
ENCODING 2341
SWIDTH 1000 0
DWIDTH 24 0
BBX 24 27 0 -5
BITMAP
000000
000000
000000
000000
000000
000000
000000
000000
00cffe
01e7ff
01b180
01b180
00f180
01f180
01c180
008380
007f80
003f80
000180
000180
000180
000080
000000
000000
000000
000000
000000
ENDCHAR
STARTCHAR U+0926
ENCODING 2342
SWIDTH 1000 0
DWIDTH 24 0
BBX 24 27 0 -5
BITMAP
000000
000000
000000
000000
000000
000000
000000
000000
fffffe
7fffff
000300
007f00
00ff00
00c000
00c000
00c600
004f00
003f00
001f00
000300
000180
000000
000000
000000
000000
000000
000000
ENDCHAR
STARTCHAR U+0927
ENCODING 2343
SWIDTH 1000 0
DWIDTH 24 0
BBX 24 27 0 -5
BITMAP
000000
000000
000000
000000
000000
000000
000000
000000
011ffe
038fff
030300
010300
00f300
01fb00
018300
018f00
00ff00
007b00
000300
000300
000300
000100
000000
000000
000000
000000
000000
ENDCHAR
STARTCHAR U+0928
ENCODING 2344
SWIDTH 1000 0
DWIDTH 24 0
BBX 24 27 0 -5
BITMAP
000000
000000
000000
000000
000000
000000
000000
000000
fffffe
7fffff
000300
000300
000300
00ff00
01ff00
00e300
004300
000300
000300
000300
000300
000100
000000
000000
000000
000000
000000
ENDCHAR
STARTCHAR U+0929
ENCODING 2345
SWIDTH 1000 0
DWIDTH 24 0
BBX 24 27 0 -5
BITMAP
000000
000000
000000
000000
000000
000000
000000
000000
fffffe
7fffff
000300
000300
000300
00ff00
01ff00
00e300
004300
000300
000300
000300
002300
007100
002000
000000
000000
000000
000000
ENDCHAR
STARTCHAR U+092a
ENCODING 2346
SWIDTH 1000 0
DWIDTH 24 0
BBX 24 27 0 -5
BITMAP
000000
000000
000000
000000
000000
000000
000000
000000
fffffe
7fffff
00c300
00c300
00c300
004300
006300
003f00
001f00
000300
000300
000300
000300
000100
000000
000000
000000
000000
000000
ENDCHAR
STARTCHAR c92b
ENCODING 2347
SWIDTH 1000 0
DWIDTH 24 0
BBX 24 27 0 -5
BITMAP
000000
000000
000000
000000
000000
000000
000000
000000
fffffe
7fffff
061800
061800
061f80
021fc0
031c60
01f860
00f860
0018e0
0018c0
0018c0
001840
000800
000000
000000
000000
000000
000000
ENDCHAR
STARTCHAR U+092c
ENCODING 2348
SWIDTH 1000 0
DWIDTH 24 0
BBX 24 27 0 -5
BITMAP
000000
000000
000000
000000
000000
000000
000000
000000
fffffe
7fffff
000300
007b00
00ff00
01e300
019300
019b00
008f00
007f00
003f00
000300
000300
000100
000000
000000
000000
000000
000000
ENDCHAR
STARTCHAR U+092d
ENCODING 2349
SWIDTH 1000 0
DWIDTH 24 0
BBX 24 27 0 -5
BITMAP
000000
000000
000000
000000
000000
000000
000000
000000
061ffe
030fff
008300
00c300
00c300
00c300
03ff00
03ff00
01c300
00c300
000300
000300
000300
000100
000000
000000
000000
000000
000000
ENDCHAR
STARTCHAR U+092e
ENCODING 2350
SWIDTH 1000 0
DWIDTH 24 0
BBX 24 27 0 -5
BITMAP
000000
000000
000000
000000
000000
000000
000000
000000
fffffe
7fffff
00c180
00c180
00c180
00c180
03ff80
03ff80
03c180
01c180
000180
000180
000180
000080
000000
000000
000000
000000
000000
ENDCHAR
STARTCHAR U+092f
ENCODING 2351
SWIDTH 1000 0
DWIDTH 24 0
BBX 24 27 0 -5
BITMAP
000000
000000
000000
000000
000000
000000
000000
000000
fffffc
7fffff
006300
006300
00e300
03c300
038300
010700
00ff00
007f00
000300
000300
000300
000100
000000
000000
000000
000000
000000
ENDCHAR
STARTCHAR U+0930
ENCODING 2352
SWIDTH 1000 0
DWIDTH 24 0
BBX 24 27 0 -5
BITMAP
000000
000000
000000
000000
000000
000000
000000
000000
fffffe
7fffff
003800
003000
00b000
00f000
00f000
006000
006000
002000
001000
000800
000600
000300
000000
000000
000000
000000
000000
ENDCHAR
STARTCHAR U+0931
ENCODING 2353
SWIDTH 1000 0
DWIDTH 24 0
BBX 24 27 0 -5
BITMAP
000000
000000
000000
000000
000000
000000
000000
000000
fffffe
7fffff
003800
003000
00b000
00f000
00f000
006000
006000
002000
001000
000800
000600
000300
001000
003800
001000
000000
000000
ENDCHAR
STARTCHAR U+0932
ENCODING 2354
SWIDTH 1000 0
DWIDTH 24 0
BBX 24 27 0 -5
BITMAP
000000
000000
000000
000000
000000
000000
000000
000000
fffffe
7fffff
0000c0
0000c0
01e3c0
03f7c0
030ec0
030cc0
0304c0
0100c0
0180c0
0080c0
0040c0
002040
000000
000000
000000
000000
000000
ENDCHAR
STARTCHAR U+0933
ENCODING 2355
SWIDTH 1000 0
DWIDTH 24 0
BBX 24 27 0 -5
BITMAP
000000
000000
000000
000000
000000
000000
000000
000000
fffffe
7fffff
000600
000600
038f00
07df80
0e3840
0c3860
0c3060
0c7060
0470e0
03ffc0
01c780
000000
000000
000000
000000
000000
000000
ENDCHAR
STARTCHAR U+0934
ENCODING 2356
SWIDTH 1000 0
DWIDTH 24 0
BBX 24 27 0 -5
BITMAP
000000
000000
000000
000000
000000
000000
000000
000000
fffffe
7fffff
000600
000600
038f00
07df80
0e3840
0c3860
0c3060
0c7060
0470e0
03ffc0
01c780
000000
001000
003800
001000
000000
000000
ENDCHAR
STARTCHAR U+0935
ENCODING 2357
SWIDTH 1000 0
DWIDTH 24 0
BBX 24 27 0 -5
BITMAP
000000
000000
000000
000000
000000
000000
000000
000000
fffffe
7fffff
000300
007b00
00ff00
01c300
018300
018300
008700
007f00
003f00
000300
000300
000100
000000
000000
000000
000000
000000
ENDCHAR
STARTCHAR U+0936
ENCODING 2358
SWIDTH 1000 0
DWIDTH 24 0
BBX 24 27 0 -5
BITMAP
000000
000000
000000
000000
000000
000000
000000
000000
fffffe
7fffff
01c4c0
0186c0
0186c0
0086c0
007ec0
003ec0
03bcc0
03f8c0
01f0c0
0018c0
0008c0
000440
000000
000000
000000
000000
000000
ENDCHAR
STARTCHAR U+0937
ENCODING 2359
SWIDTH 1000 0
DWIDTH 24 0
BBX 24 27 0 -5
BITMAP
000000
000000
000000
000000
000000
000000
000000
000000
fffffe
7fffff
00e300
00f300
00db00
004f00
006700
003f00
001f00
000300
000300
000300
000300
000100
000000
000000
000000
000000
000000
ENDCHAR
STARTCHAR U+0938
ENCODING 2360
SWIDTH 1000 0
DWIDTH 24 0
BBX 24 27 0 -5
BITMAP
000000
000000
000000
000000
000000
000000
000000
000000
fffffe
7fffff
006180
00e180
02c180
03c380
03ff80
01bf80
018180
008180
00c180
004180
002180
001080
000000
000000
000000
000000
000000
ENDCHAR
STARTCHAR U+0939
ENCODING 2361
SWIDTH 1000 0
DWIDTH 24 0
BBX 24 27 0 -5
BITMAP
000000
000000
000000
000000
000000
000000
000000
000000
fffffe
7fffff
000600
00fe00
01fe00
018000
018000
00fe00
00ff00
01e180
018180
018f80
008f00
006000
003800
000f00
000380
000000
000000
ENDCHAR
STARTCHAR U+093c
ENCODING 2364
SWIDTH 1000 0
DWIDTH 24 0
BBX 24 27 0 -5
BITMAP
000000
000000
000000
000000
000000
000000
000000
000000
000000
000000
000000
000000
000000
000000
000000
000000
000000
000000
000000
000000
000000
000000
000000
000800
001c00
000800
000000
ENDCHAR
STARTCHAR c93d
ENCODING 2365
SWIDTH 1000 0
DWIDTH 24 0
BBX 24 27 0 -5
BITMAP
000000
000000
000000
000000
000000
000000
000000
000000
007f00
00ff80
00c000
00c000
00c000
004000
003000
011800
018400
018600
018600
008e00
007c00
003800
000000
000000
000000
000000
000000
ENDCHAR
STARTCHAR U+093e
ENCODING 2366
SWIDTH 1000 0
DWIDTH 24 0
BBX 24 27 0 -5
BITMAP
000000
000000
000000
000000
000000
000000
000000
000000
0ff000
07f800
030000
030000
030000
030000
030000
030000
030000
030000
030000
030000
030000
010000
000000
000000
000000
000000
000000
ENDCHAR
STARTCHAR c93f
ENCODING 2367
SWIDTH 1000 0
DWIDTH 24 0
BBX 24 27 0 -5
BITMAP
000000
000000
01f000
03fc00
030600
030100
030000
030000
0ff000
07f800
030000
030000
030000
030000
030000
030000
030000
030000
030000
030000
030000
010000
000000
000000
000000
000000
000000
ENDCHAR
STARTCHAR U+0940
ENCODING 2368
SWIDTH 1000 0
DWIDTH 24 0
BBX 24 27 0 -5
BITMAP
000000
000000
3c0000
7e0000
e10000
c08000
40c000
00c000
01fe00
00ff00
006000
006000
006000
006000
006000
006000
006000
006000
006000
006000
006000
002000
000000
000000
000000
000000
000000
ENDCHAR
STARTCHAR U+0941
ENCODING 2369
SWIDTH 1000 0
DWIDTH 24 0
BBX 24 27 0 -5
BITMAP
000000
000000
000000
000000
000000
000000
000000
000000
000000
000000
000000
000000
000000
000000
000000
000000
000000
000000
000000
000000
000000
0010e0
001df0
000f98
000718
0003f8
0000f0
ENDCHAR
STARTCHAR U+0942
ENCODING 2370
SWIDTH 1000 0
DWIDTH 24 0
BBX 24 27 0 -5
BITMAP
000000
000000
000000
000000
000000
000000
000000
000000
000000
000000
000000
000000
000000
000000
000000
000000
000000
000000
000000
000000
000000
000780
000fc0
000c60
000f30
000790
000008
ENDCHAR
STARTCHAR c943
ENCODING 2371
SWIDTH 1000 0
DWIDTH 24 0
BBX 24 27 0 -5
BITMAP
000000
000000
000000
000000
000000
000000
000000
000000
000000
000000
000000
000000
000000
000000
000000
000000
000000
000000
000000
000000
000000
000e00
003f00
003000
003000
001f80
000f80
ENDCHAR
STARTCHAR U+0944
ENCODING 2372
SWIDTH 1000 0
DWIDTH 24 0
BBX 24 27 0 -5
BITMAP
000000
000000
000000
000000
000000
000000
000000
000000
000000
000000
000000
000000
000000
000000
000000
000000
000000
000000
000000
003800
00fc00
00c000
00c200
007e00
007c00
006300
003f00
ENDCHAR
STARTCHAR U+0945
ENCODING 2373
SWIDTH 1000 0
DWIDTH 24 0
BBX 24 27 0 -5
BITMAP
000000
000000
008600
004600
006600
003e00
001c00
000000
000000
000000
000000
000000
000000
000000
000000
000000
000000
000000
000000
000000
000000
000000
000000
000000
000000
000000
000000
ENDCHAR
STARTCHAR U+0946
ENCODING 2374
SWIDTH 1000 0
DWIDTH 24 0
BBX 24 27 0 -5
BITMAP
000000
000000
070000
038000
01f800
00fc00
000e00
000700
000000
000000
000000
000000
000000
000000
000000
000000
000000
000000
000000
000000
000000
000000
000000
000000
000000
000000
000000
ENDCHAR
STARTCHAR U+0947
ENCODING 2375
SWIDTH 1000 0
DWIDTH 24 0
BBX 24 27 0 -5
BITMAP
000000
000000
038000
01e000
003000
000800
000400
000600
000000
000000
000000
000000
000000
000000
000000
000000
000000
000000
000000
000000
000000
000000
000000
000000
000000
000000
000000
ENDCHAR
STARTCHAR U+0948
ENCODING 2376
SWIDTH 1000 0
DWIDTH 24 0
BBX 24 27 0 -5
BITMAP
000000
006000
003000
000800
01e400
00fe00
000e00
000300
000000
000000
000000
000000
000000
000000
000000
000000
000000
000000
000000
000000
000000
000000
000000
000000
000000
000000
000000
ENDCHAR
STARTCHAR U+0949
ENCODING 2377
SWIDTH 1000 0
DWIDTH 24 0
BBX 24 27 0 -5
BITMAP
000000
000000
010c00
008c00
00cc00
007c00
003800
000000
003fc0
001fe0
000c00
000c00
000c00
000c00
000c00
000c00
000c00
000c00
000c00
000c00
000c00
000400
000000
000000
000000
000000
000000
ENDCHAR
STARTCHAR U+094a
ENCODING 2378
SWIDTH 1000 0
DWIDTH 24 0
BBX 24 27 0 -5
BITMAP
000000
000000
1c0000
0e0000
07e000
03f000
003800
001c00
003fc0
001fe0
000c00
000c00
000c00
000c00
000c00
000c00
000c00
000c00
000c00
000c00
000c00
000400
000000
000000
000000
000000
000000
ENDCHAR
STARTCHAR c94b
ENCODING 2379
SWIDTH 1000 0
DWIDTH 24 0
BBX 24 27 0 -5
BITMAP
000000
000000
0e0000
078000
00c000
002000
001000
001800
003fc0
001fe0
000c00
000c00
000c00
000c00
000c00
000c00
000c00
000c00
000c00
000c00
000c00
000400
000000
000000
000000
000000
000000
ENDCHAR
STARTCHAR U+094c
ENCODING 2380
SWIDTH 1000 0
DWIDTH 24 0
BBX 24 27 0 -5
BITMAP
000000
038000
01c000
002000
0f1000
07d800
006800
001c00
003fc0
001fe0
000c00
000c00
000c00
000c00
000c00
000c00
000c00
000c00
000c00
000c00
000c00
000400
000000
000000
000000
000000
000000
ENDCHAR
STARTCHAR U+094d
ENCODING 2381
SWIDTH 1000 0
DWIDTH 24 0
BBX 24 27 0 -5
BITMAP
000000
000000
000000
000000
000000
000000
000000
000000
000000
000000
000000
000000
000000
000000
000000
000000
000000
000000
000000
000000
000000
000000
00f000
007800
000400
000200
000000
ENDCHAR
STARTCHAR U+0950
ENCODING 2384
SWIDTH 1000 0
DWIDTH 24 0
BBX 24 27 0 -5
BITMAP
000000
000000
000000
000000
000000
000000
000100
000380
001110
000818
1f8438
1fc3f0
0061e0
006000
00e000
07e3c0
03bfe0
001e10
101878
0c18f8
07f8c0
01f040
000000
000000
000000
000000
000000
ENDCHAR
STARTCHAR c951
ENCODING 2385
SWIDTH 1000 0
DWIDTH 24 0
BBX 24 27 0 -5
BITMAP
003800
003800
003800
003800
001000
001000
001000
000000
000000
000000
000000
000000
000000
000000
000000
000000
000000
000000
000000
000000
000000
000000
000000
000000
000000
000000
000000
ENDCHAR
STARTCHAR U+0952
ENCODING 2386
SWIDTH 1000 0
DWIDTH 24 0
BBX 24 27 0 -5
BITMAP
000000
000000
000000
000000
000000
000000
000000
000000
000000
000000
000000
000000
000000
000000
000000
000000
000000
000000
000000
000000
000000
000000
000000
000000
000000
7ffffe
7ffffe
ENDCHAR
STARTCHAR c953
ENCODING 2387
SWIDTH 1000 0
DWIDTH 24 0
BBX 24 27 0 -5
BITMAP
000000
000000
000000
000000
000000
000000
000000
000000
000000
000000
000000
000000
000000
000000
000000
000000
000000
000000
000000
000000
000000
000000
000000
000000
000000
000000
000000
ENDCHAR
STARTCHAR c954
ENCODING 2388
SWIDTH 1000 0
DWIDTH 24 0
BBX 24 27 0 -5
BITMAP
000000
000000
000000
000000
000000
000000
000000
000000
000000
000000
000000
000000
000000
000000
000000
000000
000000
000000
000000
000000
000000
000000
000000
000000
000000
000000
000000
ENDCHAR
STARTCHAR U+0958
ENCODING 2392
SWIDTH 1000 0
DWIDTH 24 0
BBX 24 27 0 -5
BITMAP
000000
000000
000000
000000
000000
000000
000000
000000
fffffe
7fffff
003000
03f000
07ff00
063f80
0638c0
0630c0
03f0c0
01f0c0
0031c0
013180
03b080
011000
000000
000000
000000
000000
000000
ENDCHAR
STARTCHAR U+0959
ENCODING 2393
SWIDTH 1000 0
DWIDTH 24 0
BBX 24 27 0 -5
BITMAP
000000
000000
000000
000000
000000
000000
000000
000000
fffffe
7fffff
00e0c0
00c0c0
02dfc0
03ffc0
03f0c0
01b0c0
019fc0
008fc0
00c0c0
0044c0
006ec0
002440
000000
000000
000000
000000
000000
ENDCHAR
STARTCHAR U+095a
ENCODING 2394
SWIDTH 1000 0
DWIDTH 24 0
BBX 24 27 0 -5
BITMAP
000000
000000
000000
000000
000000
000000
000000
000000
fffffe
7fffff
008300
00c300
00c300
00c300
03c300
03c300
01c300
01c300
000300
001300
003b00
001100
000000
000000
000000
000000
000000
ENDCHAR
STARTCHAR U+095b
ENCODING 2395
SWIDTH 1000 0
DWIDTH 24 0
BBX 24 27 0 -5
BITMAP
000000
000000
000000
000000
000000
000000
000000
000000
fffffe
7fffff
0000c0
0000c0
047fc0
063fc0
0218c0
0308c0
010cc0
008cc0
007cc0
003ac0
0007c0
000240
000000
000000
000000
000000
000000
ENDCHAR
STARTCHAR U+095c
ENCODING 2396
SWIDTH 1000 0
DWIDTH 24 0
BBX 24 27 0 -5
BITMAP
000000
000000
000000
000000
000000
000000
000000
000000
fffffe
7fffff
000300
003f00
007f00
006000
003e00
011f00
018180
008380
007f00
003e00
000000
000400
000e00
000400
000000
000000
000000
ENDCHAR
STARTCHAR U+095d
ENCODING 2397
SWIDTH 1000 0
DWIDTH 24 0
BBX 24 27 0 -5
BITMAP
000000
000000
000000
000000
000000
000000
000000
000000
fffffe
7fffff
000600
007e00
00fe00
01c000
018000
018e00
019f00
00b980
007180
003f80
001f00
000000
000800
001c00
000800
000000
000000
ENDCHAR
STARTCHAR U+095e
ENCODING 2398
SWIDTH 1000 0
DWIDTH 24 0
BBX 24 27 0 -5
BITMAP
000000
000000
000000
000000
000000
000000
000000
000000
fffffe
7fffff
061800
061800
061f80
021fc0
031c60
01f860
00f860
0018e0
0018c0
0098c0
01d840
008800
000000
000000
000000
000000
000000
ENDCHAR
STARTCHAR U+095f
ENCODING 2399
SWIDTH 1000 0
DWIDTH 24 0
BBX 24 27 0 -5
BITMAP
000000
000000
000000
000000
000000
000000
000000
000000
fffffc
7fffff
006300
006300
00e300
03c300
038300
010700
00ff00
007f00
000300
000300
000300
000100
001000
003800
001000
000000
000000
ENDCHAR
STARTCHAR U+0960
ENCODING 2400
SWIDTH 1000 0
DWIDTH 24 0
BBX 24 27 0 -5
BITMAP
000000
000000
000000
000000
000000
000000
000000
000000
fffffe
7fffff
003000
0f3000
1fb180
0877c0
003fc0
00fcc0
03f1c0
0fb3e0
063300
003300
0031f0
0011f0
000180
000190
0000f8
000070
000000
ENDCHAR
STARTCHAR U+0961
ENCODING 2401
SWIDTH 1000 0
DWIDTH 24 0
BBX 24 27 0 -5
BITMAP
000000
000000
000000
000000
000000
000000
000000
000000
fffffe
7fffff
000300
000300
078f00
0fdf80
0c3840
0c3060
0c1060
0401e0
0607c0
020f00
010c00
008cc0
0007c0
000780
000600
0003e0
0001e0
ENDCHAR
STARTCHAR U+0962
ENCODING 2402
SWIDTH 1000 0
DWIDTH 24 0
BBX 24 27 0 -5
BITMAP
000000
000000
000000
000000
000000
000000
000000
000000
000000
000000
000000
000000
000000
000000
000000
000000
000000
000000
000000
00ec00
01fe00
01b300
01b700
018600
000780
000380
000000
ENDCHAR
STARTCHAR U+0963
ENCODING 2403
SWIDTH 1000 0
DWIDTH 24 0
BBX 24 27 0 -5
BITMAP
000000
000000
000000
000000
000000
000000
000000
000000
000000
000000
000000
000000
000000
000000
000000
000000
000000
000000
000000
00ec00
01fe00
01b300
01b700
018600
000780
000780
000780
ENDCHAR
STARTCHAR c964
ENCODING 2404
SWIDTH 1000 0
DWIDTH 24 0
BBX 24 27 0 -5
BITMAP
000000
000000
000000
000000
000000
000000
000000
000000
008000
00c000
00c000
00c000
00c000
00c000
00c000
00c000
00c000
00c000
00c000
00c000
00c000
004000
000000
000000
000000
000000
000000
ENDCHAR
STARTCHAR U+0965
ENCODING 2405
SWIDTH 1000 0
DWIDTH 24 0
BBX 24 27 0 -5
BITMAP
000000
000000
000000
000000
000000
000000
000000
000000
008400
00c600
00c600
00c600
00c600
00c600
00c600
00c600
00c600
00c600
00c600
00c600
00c600
004200
000000
000000
000000
000000
000000
ENDCHAR
STARTCHAR U+0966
ENCODING 2406
SWIDTH 1000 0
DWIDTH 24 0
BBX 24 27 0 -5
BITMAP
000000
000000
000000
000000
000000
000000
000000
000000
000000
000000
000000
038000
07c000
0e2000
0c3000
0c3000
047000
03e000
01c000
000000
000000
000000
000000
000000
000000
000000
000000
ENDCHAR
STARTCHAR U+0967
ENCODING 2407
SWIDTH 1000 0
DWIDTH 24 0
BBX 24 27 0 -5
BITMAP
000000
000000
000000
000000
000000
000000
000000
000000
003000
007800
00e400
00c600
00c600
004e00
003e00
001c00
003800
00f000
00e000
004000
002000
001000
000800
000c00
000c00
000000
000000
ENDCHAR
STARTCHAR U+0968
ENCODING 2408
SWIDTH 1000 0
DWIDTH 24 0
BBX 24 27 0 -5
BITMAP
000000
000000
000000
000000
000000
000000
000000
000000
000000
0fe000
07f000
000800
000c00
000c00
001c00
067800
07f000
03c000
004000
006000
002000
001000
001800
000800
000000
000000
000000
ENDCHAR
STARTCHAR U+0969
ENCODING 2409
SWIDTH 1000 0
DWIDTH 24 0
BBX 24 27 0 -5
BITMAP
000000
000000
000000
000000
000000
000000
000000
000000
000000
0f8000
07c000
006000
006000
0fe000
07c000
002000
003000
0cf000
0fe000
078000
008000
004000
006000
002000
000000
000000
000000
ENDCHAR
STARTCHAR U+096a
ENCODING 2410
SWIDTH 1000 0
DWIDTH 24 0
BBX 24 27 0 -5
BITMAP
000000
000000
000000
000000
000000
000000
000000
000000
080600
040f00
021c00
017800
00f000
01c000
03e000
032000
033000
033000
01f000
00e000
000000
000000
000000
000000
000000
000000
000000
ENDCHAR
STARTCHAR U+096b
ENCODING 2411
SWIDTH 1000 0
DWIDTH 24 0
BBX 24 27 0 -5
BITMAP
000000
000000
000000
000000
000000
000000
000000
000000
082000
0c3000
0c3000
0c3000
043000
06f000
03e000
01e000
00e000
00c000
07c000
0fe000
073000
000800
000400
000000
000000
000000
000000
ENDCHAR
STARTCHAR U+096c
ENCODING 2412
SWIDTH 1000 0
DWIDTH 24 0
BBX 24 27 0 -5
BITMAP
000000
000000
000000
000000
000000
000000
000000
000000
03c000
07e000
0e0000
0c0000
040000
03e000
03f000
070000
060000
063000
023800
01f800
00f000
001800
001800
000800
000000
000000
000000
ENDCHAR
STARTCHAR U+096d
ENCODING 2413
SWIDTH 1000 0
DWIDTH 24 0
BBX 24 27 0 -5
BITMAP
000000
000000
000000
000000
000000
000000
000000
000000
080000
0c0000
0c7800
0cfc00
0cc200
0cc300
044700
063f00
021f00
030700
010e00
00fc00
007800
000000
000000
000000
000000
000000
000000
ENDCHAR
STARTCHAR U+096e
ENCODING 2414
SWIDTH 1000 0
DWIDTH 24 0
BBX 24 27 0 -5
BITMAP
000000
000000
000000
000000
000000
000000
000000
000000
000000
000000
0ffc00
07fe00
030000
070000
060000
060000
060000
063800
03fc00
01e600
000e00
000400
000000
000000
000000
000000
000000
ENDCHAR
STARTCHAR U+096f
ENCODING 2415
SWIDTH 1000 0
DWIDTH 24 0
BBX 24 27 0 -5
BITMAP
000000
000000
000000
000000
000000
000000
000000
000000
078000
0fc000
0c6000
0c6000
04e000
07c000
038000
010000
018000
008000
004000
002000
001000
000800
003c00
001800
000000
000000
000000
ENDCHAR
STARTCHAR c970
ENCODING 2416
SWIDTH 1000 0
DWIDTH 24 0
BBX 24 27 0 -5
BITMAP
000000
000000
000000
000000
000000
000000
000000
003800
004400
004400
004400
003800
000000
000000
000000
000000
000000
000000
000000
000000
000000
000000
000000
000000
000000
000000
000000
ENDCHAR
ENDFONT
